<?xml version="1.0" standalone="no"?>
<!DOCTYPE svg PUBLIC "-//W3C//DTD SVG 20010904//EN"
 "http://www.w3.org/TR/2001/REC-SVG-20010904/DTD/svg10.dtd">
<svg version="1.0" xmlns="http://www.w3.org/2000/svg"
 width="76.000000pt" height="100.000000pt" viewBox="0 0 76.000000 100.000000"
 preserveAspectRatio="xMidYMid meet">

<g transform="translate(0.000000,100.000000) scale(0.100000,-0.100000)"
fill="#000000" stroke="none">
<path d="M291 986 c-4 -6 -6 -32 -3 -58 3 -41 7 -48 25 -48 33 0 8 -18 -42
-29 -31 -7 -57 -6 -95 4 l-51 14 -50 -49 c-43 -44 -47 -51 -34 -62 60 -48 63
-110 12 -222 -35 -74 -38 -89 -38 -166 1 -143 31 -180 215 -268 58 -28 115
-60 127 -71 l22 -21 50 34 c27 19 80 46 118 60 142 56 203 129 211 252 3 49
-1 73 -23 125 -76 181 -78 200 -28 260 l26 31 -49 49 -49 49 -43 -16 c-47 -16
-98 -11 -142 12 -24 13 -24 13 -3 14 17 0 24 8 28 34 4 18 5 44 3 57 -3 23 -6
24 -91 25 -52 0 -91 -4 -96 -10z m73 -9 c30 -22 16 -51 -26 -53 -32 -2 -36 0
-41 24 -3 15 -3 30 0 34 7 13 48 9 67 -5z m104 -19 c-3 -29 -6 -32 -40 -35
-36 -2 -38 0 -38 27 0 31 10 38 53 39 26 1 28 -2 25 -31z m-71 -108 c-1 -11
-5 -20 -9 -20 -4 0 -8 9 -8 20 0 11 4 20 9 20 6 0 9 -9 8 -20z m-37 -10 c8
-16 8 -20 -2 -18 -17 4 -28 20 -22 30 8 12 12 10 24 -12z m80 5 c0 -1 -7 -8
-15 -15 -13 -10 -15 -9 -15 8 0 15 5 20 15 16 8 -4 15 -7 15 -9z m-194 -52
c-3 -3 -21 -7 -41 -10 -31 -3 -35 -1 -34 19 0 22 1 22 9 3 7 -16 9 -17 9 -3 1
21 54 30 59 10 2 -8 1 -16 -2 -19z m44 16 c0 -24 -23 -21 -28 4 -2 10 3 17 12
17 10 0 16 -9 16 -21z m210 13 c0 -5 20 -7 44 -5 45 3 67 -10 48 -29 -6 -6
-16 -7 -23 -2 -8 4 -30 7 -50 5 -37 -2 -56 10 -44 29 7 12 25 13 25 2z m-70
-23 c30 -11 84 -23 121 -26 l67 -6 -10 -36 c-15 -52 -4 -145 26 -231 15 -41
29 -100 32 -130 8 -86 -12 -114 -127 -175 -52 -27 -109 -60 -127 -73 l-32 -24
-28 24 c-16 13 -67 43 -115 66 -47 24 -97 56 -111 73 -36 43 -35 111 5 236 32
100 40 169 26 236 l-8 37 48 0 c36 1 178 39 178 49 0 0 25 -8 55 -20z m-300
-240 c0 -5 -9 -9 -20 -9 -11 0 -20 4 -20 8 0 4 9 8 20 9 11 1 20 -2 20 -8z
m550 -4 c0 -8 -9 -15 -20 -15 -20 0 -26 11 -13 23 12 13 33 7 33 -8z m-572
-33 c2 -7 -3 -12 -12 -12 -9 0 -16 7 -16 16 0 17 22 14 28 -4z m582 -1 c0 -13
-28 -22 -35 -11 -3 4 1 11 7 13 20 8 28 8 28 -2z m-585 -30 c3 -5 1 -13 -5
-16 -15 -9 -43 3 -35 15 8 13 32 13 40 1z m600 -12 c-4 -5 -13 -9 -22 -9 -13
0 -13 3 -3 15 13 15 35 11 25 -6z m2 -41 c-18 -12 -27 -10 -27 6 0 8 6 16 13
19 17 6 29 -16 14 -25z m-650 -10 c-3 -8 -6 -5 -6 6 -1 11 2 17 5 13 3 -3 4
-12 1 -19z m33 3 c0 -6 -9 -16 -21 -24 -15 -11 -17 -16 -7 -20 9 -4 7 -6 -4
-6 -10 -1 -18 4 -18 9 0 12 31 48 43 49 4 1 7 -3 7 -8z m633 -8 c4 -3 2 -12
-4 -20 -8 -9 -8 -13 -1 -13 6 0 10 -13 10 -30 -1 -16 -5 -30 -10 -30 -5 0 -4
-9 1 -19 9 -16 8 -18 -7 -15 -14 4 -17 16 -16 67 1 34 2 63 3 65 2 4 18 2 24
-5z m-653 -73 c0 -11 -6 -20 -12 -20 -9 0 -8 -3 2 -10 12 -7 12 -12 3 -21 -18
-18 -29 16 -13 36 9 10 9 15 1 15 -6 0 -11 5 -11 10 0 6 7 10 15 10 8 0 15 -9
15 -20z m75 -161 c-4 -5 -13 -9 -22 -9 -13 0 -13 3 -3 15 13 15 35 11 25 -6z
m514 7 c9 -10 8 -15 -4 -20 -8 -3 -15 -4 -15 -2 0 3 -3 11 -6 20 -8 20 9 21
25 2z m-480 -32 c-17 -21 -31 -17 -19 6 6 11 15 18 21 14 6 -4 6 -11 -2 -20z
m439 1 c-3 -3 -9 2 -12 12 -6 14 -5 15 5 6 7 -7 10 -15 7 -18z m-41 1 c-3 -8
-1 -17 6 -20 9 -3 9 -5 0 -5 -15 -1 -26 16 -18 29 9 15 18 12 12 -4z m-352
-26 c-5 -8 -11 -8 -17 -2 -6 6 -7 16 -3 22 5 8 11 8 17 2 6 -6 7 -16 3 -22z
m45 -10 c0 -11 -7 -20 -15 -20 -13 0 -14 4 -5 20 6 11 13 20 15 20 3 0 5 -9 5
-20z m278 3 c6 -19 -25 -16 -32 3 -4 11 -1 14 11 12 9 -2 18 -9 21 -15z m-237
-27 c-6 -7 -9 -16 -6 -20 3 -3 0 -2 -6 3 -14 12 -3 45 11 36 8 -5 8 -11 1 -19z
m188 11 c8 -10 7 -14 -4 -14 -8 0 -16 6 -19 14 -3 7 -2 13 3 13 5 0 14 -6 20
-13z m-45 -23 c4 -11 1 -14 -11 -12 -9 2 -18 9 -21 16 -6 18 25 15 32 -4z
m-93 -8 c15 9 10 -2 -6 -16 -13 -10 -15 -9 -14 11 0 13 3 18 6 11 2 -6 9 -10
14 -6z m42 -26 c3 -11 1 -20 -4 -20 -5 0 -9 2 -9 4 0 2 -3 11 -6 20 -3 9 -2
16 4 16 5 0 12 -9 15 -20z"/>
<path d="M215 800 c3 -5 8 -10 11 -10 2 0 4 5 4 10 0 6 -5 10 -11 10 -5 0 -7
-4 -4 -10z"/>
<path d="M193 722 c10 -10 14 -22 10 -26 -4 -4 0 -4 10 0 9 3 17 13 17 21 0 8
-4 12 -9 8 -5 -3 -12 -1 -16 5 -3 5 -11 10 -17 10 -6 0 -4 -8 5 -18z"/>
<path d="M232 695 c-10 -21 -9 -23 5 -18 10 4 14 2 10 -4 -8 -12 20 -26 34
-17 5 3 9 0 9 -5 0 -6 -4 -11 -10 -11 -5 0 -10 -4 -10 -9 0 -5 8 -7 18 -4 12
3 22 -3 29 -19 10 -21 11 -19 10 17 -2 41 -22 68 -44 60 -8 -3 -13 4 -13 15 0
28 -25 25 -38 -5z"/>
<path d="M150 410 c-19 -12 -42 -110 -26 -115 35 -10 76 -13 76 -5 0 5 -12 11
-27 13 -27 4 -27 4 4 6 27 1 32 6 38 34 4 17 12 37 17 44 19 23 -50 43 -82 23z
m21 -51 c-5 -19 -10 -26 -10 -17 -1 9 -4 25 -7 35 -5 15 -4 15 5 3 9 -13 11
-12 11 4 0 11 3 17 6 14 3 -3 1 -21 -5 -39z"/>
<path d="M242 375 c-7 -14 -15 -43 -18 -64 -6 -37 -5 -38 27 -44 19 -3 44 -9
55 -12 19 -6 22 -1 28 32 4 21 10 47 12 58 4 14 -3 25 -25 38 -41 24 -66 21
-79 -8z m82 -12 c4 -10 4 -14 -1 -10 -4 5 -13 -7 -20 -25 l-13 -33 6 35 c9 53
17 62 28 33z m-29 -85 c7 -7 2 -8 -15 -3 -14 4 -29 12 -35 17 -7 7 -2 8 15 3
14 -4 30 -12 35 -17z"/>
<path d="M475 271 c0 -15 5 -28 11 -28 13 0 12 33 -2 47 -5 5 -9 -2 -9 -19z"/>
</g>
</svg>
