<?xml version="1.0" encoding="utf-8"?>
<!-- Generator: Adobe Illustrator 27.5.0, SVG Export Plug-In . SVG Version: 6.00 Build 0)  -->
<svg version="1.1" id="Layer_1" xmlns="http://www.w3.org/2000/svg" xmlns:xlink="http://www.w3.org/1999/xlink" x="0px" y="0px"
	 viewBox="0 0 2599 1733" style="enable-background:new 0 0 2599 1733;" xml:space="preserve">
<g>
	<g>
		<defs>
			<rect id="SVGID_1_" width="2598.076" height="1732.051"/>
		</defs>
		<use xlink:href="#SVGID_1_"  style="overflow:visible;fill:#242424;"/>
		<clipPath id="SVGID_00000027600592426485151020000001369473349637682060_">
			<use xlink:href="#SVGID_1_"  style="overflow:visible;"/>
		</clipPath>
		
			<radialGradient id="SVGID_00000052823833406440657250000010564897736632283820_" cx="1563.0552" cy="279.0936" r="1722.3999" gradientUnits="userSpaceOnUse">
			<stop  offset="0.6784" style="stop-color:#FFFFFF"/>
			<stop  offset="0.778" style="stop-color:#FCFCFC"/>
			<stop  offset="0.8431" style="stop-color:#F4F4F4"/>
			<stop  offset="0.8982" style="stop-color:#E5E5E5"/>
			<stop  offset="0.9479" style="stop-color:#D0D0D0"/>
			<stop  offset="0.9935" style="stop-color:#B4B4B4"/>
			<stop  offset="1" style="stop-color:#B0B0B0"/>
		</radialGradient>
		
			<path style="opacity:0.6;clip-path:url(#SVGID_00000027600592426485151020000001369473349637682060_);fill:url(#SVGID_00000052823833406440657250000010564897736632283820_);" d="
			M-4.758-68.51C-31.948,42.912-46.47,159.299-46.47,279.094c0,807.067,654.256,1461.323,1461.323,1461.323
			s1461.323-654.256,1461.323-1461.323c0-119.795-14.521-236.182-41.71-347.604H-4.758z"/>
		
			<radialGradient id="SVGID_00000054237417134206742040000009073582169152763803_" cx="1526.9839" cy="279.0938" r="1303.175" gradientUnits="userSpaceOnUse">
			<stop  offset="0.6784" style="stop-color:#FFFFFF"/>
			<stop  offset="0.778" style="stop-color:#FCFCFC"/>
			<stop  offset="0.8431" style="stop-color:#F4F4F4"/>
			<stop  offset="0.8982" style="stop-color:#E5E5E5"/>
			<stop  offset="0.9479" style="stop-color:#D0D0D0"/>
			<stop  offset="0.9935" style="stop-color:#B4B4B4"/>
			<stop  offset="1" style="stop-color:#B0B0B0"/>
		</radialGradient>
		
			<path style="opacity:0.6;clip-path:url(#SVGID_00000027600592426485151020000001369473349637682060_);fill:url(#SVGID_00000054237417134206742040000009073582169152763803_);" d="
			M365.029-68.51c-36.176,109.314-55.818,226.159-55.818,347.604c0,610.63,495.014,1105.643,1105.643,1105.643
			c610.63,0,1105.644-495.013,1105.644-1105.643c0-121.445-19.643-238.29-55.819-347.604H365.029z"/>
		
			<radialGradient id="SVGID_00000070077802432909607160000017068673433510049920_" cx="1490.3361" cy="279.0938" r="877.2604" gradientUnits="userSpaceOnUse">
			<stop  offset="0.6784" style="stop-color:#FFFFFF"/>
			<stop  offset="0.778" style="stop-color:#FCFCFC"/>
			<stop  offset="0.8431" style="stop-color:#F4F4F4"/>
			<stop  offset="0.8982" style="stop-color:#E5E5E5"/>
			<stop  offset="0.9479" style="stop-color:#D0D0D0"/>
			<stop  offset="0.9935" style="stop-color:#B4B4B4"/>
			<stop  offset="1" style="stop-color:#B0B0B0"/>
		</radialGradient>
		
			<path style="opacity:0.5;clip-path:url(#SVGID_00000027600592426485151020000001369473349637682060_);fill:url(#SVGID_00000070077802432909607160000017068673433510049920_);" d="
			M756.616-68.51c-54.91,103.762-86.05,222.038-86.05,347.604c0,411.059,333.23,744.288,744.288,744.288
			c411.059,0,744.287-333.229,744.287-744.288c0-125.566-31.141-243.842-86.05-347.604H756.616z"/>
		
			<radialGradient id="SVGID_00000078754949704516125850000003547760570319518647_" cx="1450.9604" cy="279.0939" r="419.6383" gradientUnits="userSpaceOnUse">
			<stop  offset="0.6784" style="stop-color:#FFFFFF"/>
			<stop  offset="0.778" style="stop-color:#FCFCFC"/>
			<stop  offset="0.8431" style="stop-color:#F4F4F4"/>
			<stop  offset="0.8982" style="stop-color:#E5E5E5"/>
			<stop  offset="0.9479" style="stop-color:#D0D0D0"/>
			<stop  offset="0.9935" style="stop-color:#B4B4B4"/>
			<stop  offset="1" style="stop-color:#B0B0B0"/>
		</radialGradient>
		
			<path style="opacity:0.4;clip-path:url(#SVGID_00000027600592426485151020000001369473349637682060_);fill:url(#SVGID_00000078754949704516125850000003547760570319518647_);" d="
			M1491.775-68.51h-153.844c-159.635,35.173-279.108,177.396-279.108,347.604c0,196.63,159.399,356.03,356.03,356.03
			c196.63,0,356.031-159.4,356.031-356.03C1770.884,108.886,1651.412-33.337,1491.775-68.51z"/>
		
			<radialGradient id="SVGID_00000133525446450400134470000016549148932499515292_" cx="1541.174" cy="1559.0881" r="1868.7572" gradientUnits="userSpaceOnUse">
			<stop  offset="0.6784" style="stop-color:#FFFFFF"/>
			<stop  offset="0.778" style="stop-color:#FCFCFC"/>
			<stop  offset="0.8431" style="stop-color:#F4F4F4"/>
			<stop  offset="0.8982" style="stop-color:#E5E5E5"/>
			<stop  offset="0.9479" style="stop-color:#D0D0D0"/>
			<stop  offset="0.9935" style="stop-color:#B4B4B4"/>
			<stop  offset="1" style="stop-color:#B0B0B0"/>
		</radialGradient>
		
			<path style="opacity:0.6;clip-path:url(#SVGID_00000027600592426485151020000001369473349637682060_);fill:url(#SVGID_00000133525446450400134470000016549148932499515292_);" d="
			M2940.307,1843.963c16.768-92.422,25.571-187.618,25.571-284.875c0-875.647-709.854-1585.499-1585.499-1585.499
			c-875.648,0-1585.5,709.852-1585.5,1585.499c0,97.258,8.803,192.454,25.571,284.875H2940.307z"/>
		
			<radialGradient id="SVGID_00000036252601153930338080000002836334159966849444_" cx="1502.0367" cy="1559.0872" r="1413.9059" gradientUnits="userSpaceOnUse">
			<stop  offset="0.6784" style="stop-color:#FFFFFF"/>
			<stop  offset="0.778" style="stop-color:#FCFCFC"/>
			<stop  offset="0.8431" style="stop-color:#F4F4F4"/>
			<stop  offset="0.8982" style="stop-color:#E5E5E5"/>
			<stop  offset="0.9479" style="stop-color:#D0D0D0"/>
			<stop  offset="0.9935" style="stop-color:#B4B4B4"/>
			<stop  offset="1" style="stop-color:#B0B0B0"/>
		</radialGradient>
		
			<path style="opacity:0.6;clip-path:url(#SVGID_00000027600592426485151020000001369473349637682060_);fill:url(#SVGID_00000036252601153930338080000002836334159966849444_);" d="
			M2545.848,1843.963c22.246-91.323,34.125-186.705,34.125-284.875c0-662.518-537.076-1199.595-1199.594-1199.595
			c-662.519,0-1199.596,537.077-1199.596,1199.595c0,98.171,11.88,193.552,34.125,284.875H2545.848z"/>
		
			<radialGradient id="SVGID_00000142176736015820963280000000466870364406513293_" cx="1462.2754" cy="1559.0879" r="951.803" gradientUnits="userSpaceOnUse">
			<stop  offset="0.6784" style="stop-color:#FFFFFF"/>
			<stop  offset="0.778" style="stop-color:#FCFCFC"/>
			<stop  offset="0.8431" style="stop-color:#F4F4F4"/>
			<stop  offset="0.8982" style="stop-color:#E5E5E5"/>
			<stop  offset="0.9479" style="stop-color:#D0D0D0"/>
			<stop  offset="0.9935" style="stop-color:#B4B4B4"/>
			<stop  offset="1" style="stop-color:#B0B0B0"/>
		</radialGradient>
		
			<path style="opacity:0.5;clip-path:url(#SVGID_00000027600592426485151020000001369473349637682060_);fill:url(#SVGID_00000142176736015820963280000000466870364406513293_);" d="
			M2136.167,1843.963c33.412-88.597,51.745-184.589,51.745-284.875c0-445.988-361.544-807.533-807.532-807.533
			c-445.989,0-807.534,361.545-807.534,807.533c0,100.287,18.333,196.279,51.745,284.875H2136.167z"/>
		
			<linearGradient id="SVGID_00000020366374977948460310000002218893776937924496_" gradientUnits="userSpaceOnUse" x1="-5.1309" y1="910.8683" x2="2603.6851" y2="910.8683">
			<stop  offset="0" style="stop-color:#FBFBFB"/>
			<stop  offset="0.086" style="stop-color:#F1F1F1"/>
			<stop  offset="0.2302" style="stop-color:#D7D7D7"/>
			<stop  offset="0.4149" style="stop-color:#ADADAD"/>
			<stop  offset="0.6329" style="stop-color:#727272"/>
			<stop  offset="0.8762" style="stop-color:#282828"/>
			<stop  offset="1" style="stop-color:#000000"/>
		</linearGradient>
		
			<rect x="-57.386" y="-10.742" style="clip-path:url(#SVGID_00000027600592426485151020000001369473349637682060_);fill:url(#SVGID_00000020366374977948460310000002218893776937924496_);" width="2724.185" height="1843.221"/>
	</g>
</g>
</svg>
